<svg xmlns="http://www.w3.org/2000/svg" viewBox="0 0 24 24" fill="none" stroke="currentColor" stroke-width="1.8" stroke-linecap="round" stroke-linejoin="round">
  <path d="M5 5.5A1.5 1.5 0 0 1 6.5 4h2A1.5 1.5 0 0 1 10 5.5v13A1.5 1.5 0 0 1 8.5 20h-2A1.5 1.5 0 0 1 5 18.5Z" />
  <path d="M10 5.5A1.5 1.5 0 0 1 11.5 4h2A1.5 1.5 0 0 1 15 5.5v13a1.5 1.5 0 0 1-1.5 1.5h-2A1.5 1.5 0 0 1 10 18.5Z" />
  <path d="M15 7.5A1.5 1.5 0 0 1 16.5 6H18a1.5 1.5 0 0 1 1.4 2l-3 10.7A1.5 1.5 0 0 1 15 19.8h-1.5A1.5 1.5 0 0 1 12 17.9Z" />
</svg>
